<svg width="46" height="36" viewBox="0 0 46 36" fill="none" xmlns="http://www.w3.org/2000/svg">
<g filter="url(#filter0_dd_1009_2577)">
<path d="M23 20C23 17.7909 21.2091 16 19 16H17C14.7909 16 13 17.7909 13 20M33 17C33 14.7909 31.2091 13 29 13H27C25.8053 13 24.7329 13.5238 24 14.3542M21 10C21 11.6569 19.6569 13 18 13C16.3431 13 15 11.6569 15 10C15 8.34315 16.3431 7 18 7C19.6569 7 21 8.34315 21 10ZM31 7C31 8.65685 29.6569 10 28 10C26.3431 10 25 8.65685 25 7C25 5.34315 26.3431 4 28 4C29.6569 4 31 5.34315 31 7Z" stroke="#B6F09C" stroke-width="1.5" stroke-linecap="round" stroke-linejoin="round"/>
</g>
<defs>
<filter id="filter0_dd_1009_2577" x="-1" y="-2" width="48" height="48" filterUnits="userSpaceOnUse" color-interpolation-filters="sRGB">
<feFlood flood-opacity="0" result="BackgroundImageFix"/>
<feColorMatrix in="SourceAlpha" type="matrix" values="0 0 0 0 0 0 0 0 0 0 0 0 0 0 0 0 0 0 127 0" result="hardAlpha"/>
<feMorphology radius="4" operator="erode" in="SourceAlpha" result="effect1_dropShadow_1009_2577"/>
<feOffset dy="4"/>
<feGaussianBlur stdDeviation="3"/>
<feColorMatrix type="matrix" values="0 0 0 0 0.713726 0 0 0 0 0.941176 0 0 0 0 0.611765 0 0 0 0.16 0"/>
<feBlend mode="normal" in2="BackgroundImageFix" result="effect1_dropShadow_1009_2577"/>
<feColorMatrix in="SourceAlpha" type="matrix" values="0 0 0 0 0 0 0 0 0 0 0 0 0 0 0 0 0 0 127 0" result="hardAlpha"/>
<feMorphology radius="3" operator="erode" in="SourceAlpha" result="effect2_dropShadow_1009_2577"/>
<feOffset dy="10"/>
<feGaussianBlur stdDeviation="7.5"/>
<feColorMatrix type="matrix" values="0 0 0 0 0.713726 0 0 0 0 0.941176 0 0 0 0 0.611765 0 0 0 0.16 0"/>
<feBlend mode="normal" in2="effect1_dropShadow_1009_2577" result="effect2_dropShadow_1009_2577"/>
<feBlend mode="normal" in="SourceGraphic" in2="effect2_dropShadow_1009_2577" result="shape"/>
</filter>
</defs>
</svg>
